<svg width="21" height="20" viewBox="0 0 21 20" fill="none" xmlns="http://www.w3.org/2000/svg">
<path d="M10.625 0C16.1478 0 20.625 4.47715 20.625 10C20.625 15.5228 16.1478 20 10.625 20C5.10215 20 0.625 15.5228 0.625 10C0.625 4.47715 5.10215 6.44257e-07 10.625 0ZM10.625 1.44727C5.90172 1.44727 2.07227 5.27672 2.07227 10C2.07227 14.7233 5.90172 18.5527 10.625 18.5527C15.3483 18.5527 19.1777 14.7233 19.1777 10C19.1777 5.27672 15.3483 1.44727 10.625 1.44727ZM13.6338 6.08496C14.1913 5.91073 14.7155 6.43469 14.541 6.99219L13.0039 11.9043C12.933 12.1304 12.7554 12.308 12.5293 12.3789L7.61719 13.916C7.05969 14.0905 6.53573 13.5663 6.70996 13.0088L8.24707 8.09668C8.31794 7.87027 8.49527 7.69294 8.72168 7.62207L13.6338 6.08496ZM9.51562 8.89062L8.50391 12.1211L11.7344 11.1094L12.7461 7.87891L9.51562 8.89062Z" fill="#FEBCC6"/>
</svg>
