<svg width="19" height="20" viewBox="0 0 19 20" fill="none" xmlns="http://www.w3.org/2000/svg">
<path fill-rule="evenodd" clip-rule="evenodd" d="M6.00538 20C5.5926 20 5.20086 19.968 4.83217 19.905L4.61375 19.864C2.23827 19.371 0.857666 17.555 0.857666 14.791V5.209C0.857666 4.875 0.877704 4.555 0.917779 4.249C1.26744 1.564 3.11593 0 6.00538 0H13.745C16.947 0 18.8616 1.92 18.8917 5.132V5.209V14.791C18.8917 18.048 16.9721 20 13.745 20H6.00538ZM6.00538 1.457C3.54474 1.457 2.29738 2.72 2.29738 5.209V14.791C2.29738 17.28 3.54474 18.543 6.00538 18.543H13.736C16.1956 18.543 17.4349 17.28 17.4349 14.791V5.209C17.4349 2.72 16.1956 1.457 13.736 1.457H6.00538ZM14.1888 14.234C14.1888 13.834 13.8692 13.51 13.4745 13.51H6.24984C5.8551 13.51 5.53449 13.834 5.53449 14.234C5.53449 14.634 5.8551 14.958 6.24984 14.958H13.4745C13.8692 14.958 14.1888 14.634 14.1888 14.234ZM13.4745 9.271C13.75 9.241 14.0195 9.373 14.1668 9.61C14.3141 9.849 14.3141 10.151 14.1668 10.39C14.0195 10.627 13.75 10.759 13.4745 10.729H6.24984C5.88315 10.687 5.60563 10.374 5.60563 10C5.60563 9.626 5.88315 9.312 6.24984 9.271H13.4745ZM9.65126 5.771C9.65126 5.397 9.37374 5.083 9.00705 5.042H6.25886C5.89117 5.083 5.61364 5.397 5.61364 5.771C5.61364 6.144 5.89117 6.458 6.25886 6.499H9.00705C9.37374 6.458 9.65126 6.144 9.65126 5.771Z" fill="#6A6A8B"/>
</svg>
