<svg width="17" height="20" viewBox="0 0 17 20" fill="none" xmlns="http://www.w3.org/2000/svg">
<path d="M5.9551 12.8213C7.39887 12.6939 8.85117 12.6939 10.2949 12.8213L10.7559 12.8604C11.3862 12.9225 12.012 13.0199 12.6279 13.1514C14.1983 13.4749 15.339 14.0488 15.8438 15.1133C16.2185 15.905 16.2187 16.8241 15.8438 17.6162C15.3377 18.6833 14.1821 19.2621 12.6397 19.5664L12.1729 19.6641C11.5484 19.7839 10.9185 19.8654 10.293 19.9082C9.11891 20.0082 7.93863 20.0265 6.8008 19.9639C6.6757 19.9639 6.59164 19.9636 6.5176 19.9619L6.37307 19.9561C6.19791 19.9471 6.03732 19.9289 5.96975 19.9092C5.17814 19.8554 4.39108 19.7405 3.63674 19.5703L3.38088 19.5176C1.95269 19.2002 0.894621 18.6268 0.405294 17.6152C0.220166 17.2229 0.124528 16.7938 0.12502 16.3633C0.12339 15.9294 0.219976 15.4999 0.41213 15.0996C0.921831 14.0762 2.11979 13.4606 3.61623 13.1523C4.39152 12.9862 5.17751 12.8753 5.9551 12.8213ZM10.169 14.2637C8.80925 14.1437 7.44135 14.1437 6.06838 14.2646C5.34508 14.315 4.62581 14.4162 3.91115 14.5693C2.80431 14.7974 1.95782 15.2328 1.70607 15.7383C1.6135 15.9313 1.56562 16.1434 1.56643 16.3613C1.5662 16.5806 1.61456 16.7974 1.7051 16.9893C1.9641 17.5245 2.76277 17.925 3.93264 18.1543L4.28518 18.2285C4.87547 18.3455 5.48358 18.4265 6.1592 18.4775C6.24453 18.4947 6.33706 18.5052 6.44631 18.5107L6.83986 18.5176C7.95001 18.5776 9.06305 18.5601 10.1826 18.4648C10.9042 18.4154 11.6213 18.3118 12.3447 18.1504L12.5694 18.1025C13.5968 17.8696 14.3079 17.4875 14.542 16.9941C14.7305 16.5958 14.7303 16.1334 14.542 15.7354C14.2916 15.2073 13.5002 14.8087 12.334 14.5684C11.6246 14.4169 10.9052 14.3156 10.1817 14.2646L10.169 14.2637ZM8.12893 0C11.0629 0 13.4413 2.38852 13.4414 5.33496C13.4414 8.2815 11.063 10.6699 8.12893 10.6699C5.19508 10.6697 2.81643 8.28137 2.81643 5.33496C2.81654 2.38865 5.19515 0.000210306 8.12893 0ZM8.12893 1.44727C5.99128 1.44748 4.25795 3.18818 4.25783 5.33496C4.25783 7.48184 5.99121 9.22245 8.12893 9.22266C10.2668 9.22266 12 7.48197 12 5.33496C11.9999 3.18805 10.2667 1.44727 8.12893 1.44727Z" fill="#6A6A8B"/>
</svg>
