<svg width="21" height="19" viewBox="0 0 21 19" fill="none" xmlns="http://www.w3.org/2000/svg">
<path d="M16.2318 -0.000244141C18.5196 -2.47013e-06 20.3734 1.8547 20.3734 4.14233L20.3753 6.84546C20.3755 7.25977 20.0396 7.59546 19.6253 7.59546L19.4818 7.60229C18.7239 7.67413 18.1351 8.3078 18.1351 9.08472C18.1351 9.90961 18.7996 10.574 19.6253 10.574C20.0395 10.574 20.3753 10.9098 20.3753 11.324V14.0242C20.3751 16.3124 18.5213 18.1665 16.2327 18.1667H4.51691C2.22914 18.1665 0.375529 16.3122 0.375305 14.0242V11.324C0.375305 10.9098 0.711092 10.574 1.12531 10.574C1.95009 10.574 2.61456 9.9095 2.61456 9.08472C2.61454 8.28554 1.97706 7.68237 1.12531 7.68237C0.710987 7.68237 0.375157 7.34669 0.375305 6.93237L0.376282 4.14233C0.37651 1.85446 2.23099 -3.77028e-06 4.51886 -0.000244141H16.2318ZM4.51886 1.49976C3.05928 1.5 1.87628 2.6834 1.87628 4.14331L1.87531 6.27222L1.97784 6.29761C3.16488 6.62819 4.03621 7.63882 4.10968 8.90991L4.11456 9.08472C4.11456 10.4427 3.21307 11.5867 1.97491 11.9519L1.87531 11.9773V14.0242C1.87552 15.4278 2.96855 16.5755 4.34991 16.6619L4.51691 16.6667H16.2327C17.6928 16.6665 18.8751 15.484 18.8753 14.0242V11.9773L18.7757 11.9519C17.5909 11.6026 16.7139 10.5408 16.64 9.2605L16.6351 9.08472C16.6351 7.72599 17.5369 6.58253 18.7757 6.21753L18.8753 6.19116L18.8734 4.14233C18.8731 2.73873 17.7801 1.59098 16.3987 1.50464L16.2318 1.49976H4.51886ZM9.50421 5.46558C9.86239 4.74538 10.8909 4.74549 11.2454 5.46753L11.9427 6.87866L13.5003 7.10425C14.2574 7.21657 14.5817 8.10772 14.1126 8.67944L14.0364 8.76343L12.9095 9.85815L13.1771 11.4089C13.3066 12.1665 12.5533 12.7504 11.8636 12.4783L11.765 12.4333L10.3734 11.7019L8.98077 12.4343C8.30151 12.7879 7.51219 12.255 7.55988 11.5154L7.57257 11.4089L7.83722 9.85815L6.71222 8.76147C6.16429 8.2256 6.4266 7.31465 7.14093 7.12671L7.25128 7.10425L8.80597 6.87866L9.50421 5.46558ZM9.97687 7.89526C9.86758 8.11631 9.65644 8.2699 9.41241 8.30542L8.52667 8.43433L9.1673 9.05933C9.31899 9.20703 9.40011 9.41043 9.39386 9.6189L9.38312 9.72339L9.23175 10.6072L10.0257 10.1902C10.2127 10.092 10.4313 10.0781 10.6273 10.1482L10.7239 10.1902L11.5169 10.6082L11.3655 9.72339C11.3297 9.51488 11.3836 9.30233 11.511 9.13745L11.5814 9.05933L12.222 8.43433L11.3362 8.30542C11.1272 8.27484 10.9418 8.15807 10.8245 7.98608L10.7718 7.89526L10.3734 7.09058L9.97687 7.89526Z" fill="#6A6A8B"/>
</svg>
