<svg width="15" height="15" viewBox="0 0 15 15" fill="none" xmlns="http://www.w3.org/2000/svg">
<path d="M7.20898 0C11.1901 0.000173759 14.417 3.15661 14.417 7.0498C14.4169 8.88653 13.6974 10.558 12.5205 11.8125L14.8369 14.0723C15.054 14.284 15.0544 14.6285 14.8379 14.8408C14.641 15.0336 14.3327 15.0509 14.1152 14.8936L14.0527 14.8418L11.708 12.5547C10.4748 13.5198 8.91145 14.0986 7.20898 14.0986C3.22788 14.0986 0.000198557 10.9429 0 7.0498C0 3.1565 3.22775 0 7.20898 0ZM7.20898 1.08594C3.84097 1.08594 1.11035 3.75618 1.11035 7.0498C1.11054 10.3433 3.84109 13.0127 7.20898 13.0127C10.5767 13.0125 13.3064 10.3432 13.3066 7.0498C13.3066 3.75629 10.5768 1.08612 7.20898 1.08594Z" fill="white"/>
</svg>
